<svg width="14" height="14" viewBox="0 0 14 14" fill="none" xmlns="http://www.w3.org/2000/svg">
<path d="M7.00175 0H6.99825C3.13863 0 0 3.1395 0 7C0 8.53125 0.4935 9.9505 1.33263 11.1029L0.46025 13.7034L3.15088 12.8433C4.25775 13.5765 5.57812 14 7.00175 14C10.8614 14 14 10.8596 14 7C14 3.14038 10.8614 0 7.00175 0Z" fill="#B1B1B1"/>
<path d="M11.0749 9.88491C10.906 10.3618 10.2358 10.7573 9.70114 10.8728C9.33539 10.9507 8.85764 11.0128 7.24939 10.346C5.19226 9.49379 3.86751 7.40341 3.76426 7.26779C3.66539 7.13216 2.93301 6.16091 2.93301 5.15641C2.93301 4.15191 3.44314 3.66279 3.64876 3.45279C3.81764 3.28041 4.09676 3.20166 4.36451 3.20166C4.45114 3.20166 4.52901 3.20604 4.59901 3.20954C4.80464 3.21829 4.90789 3.23054 5.04351 3.55516C5.21239 3.96204 5.62364 4.96654 5.67264 5.06979C5.72251 5.17304 5.77239 5.31304 5.70239 5.44866C5.63676 5.58866 5.57901 5.65079 5.47576 5.76979C5.37251 5.88879 5.27451 5.97979 5.17126 6.10754C5.07676 6.21866 4.97001 6.33766 5.08901 6.54329C5.20801 6.74454 5.61926 7.41566 6.22476 7.95466C7.00614 8.65029 7.63964 8.87254 7.86626 8.96704C8.03514 9.03704 8.23639 9.02041 8.35976 8.88916C8.51639 8.72029 8.70976 8.44029 8.90664 8.16466C9.04664 7.96691 9.22339 7.94241 9.40889 8.01241C9.59789 8.07804 10.598 8.57241 10.8036 8.67479C11.0093 8.77804 11.1449 8.82704 11.1948 8.91366C11.2438 9.00029 11.2438 9.40716 11.0749 9.88491Z" fill="white"/>
</svg>
