<svg xmlns="http://www.w3.org/2000/svg" width="17" height="11" viewBox="0 0 17 11"><g><g opacity=".56"><g opacity=".56"/><g opacity=".56"><g opacity=".56"><g opacity=".56"><path d="M16.849 9.302c-.046-.077-.329-.691-1.689-1.953-1.424-1.322-1.232-1.108.483-3.393 1.044-1.392 1.462-2.242 1.33-2.606-.123-.346-.892-.255-.892-.255l-2.554.015s-.19-.025-.33.059c-.138.083-.226.274-.226.274s-.405 1.077-.945 1.993c-1.138 1.933-1.593 2.035-1.78 1.915-.432-.28-.323-1.124-.323-1.724 0-1.873.283-2.654-.554-2.856C9.091.704 8.887.66 8.176.652 7.264.642 6.492.655 6.055.87c-.291.142-.516.46-.378.478.168.022.551.103.754.38.262.355.253 1.157.253 1.157s.15 2.204-.352 2.479c-.345.188-.818-.196-1.833-1.95-.52-.898-.913-1.892-.913-1.892s-.075-.184-.21-.283c-.164-.12-.393-.159-.393-.159l-2.43.015s-.364.01-.498.17c-.119.14-.01.432-.01.432s1.903 4.449 4.056 6.692c1.975 2.056 4.217 1.92 4.217 1.92h1.016s.307-.033.463-.202c.145-.155.14-.446.14-.446s-.02-1.364.613-1.564c.623-.198 1.424 1.317 2.273 1.9.642.442 1.13.345 1.13.345l2.27-.032s1.189-.073.626-1.007z"/></g></g></g></g></g></svg>